:SAMPLES-PER-SECOND 30
:FULLY-SPECIFIED
:DEGREES
17
root  83.0374 40.4398 -0.45675 172.18 -87.6569 -171.434
RightUpLeg  -0.499378 -8.00495 -5.33229
RightLeg  1.36303 -5.7463 3.89913
RightFoot  0.273664 0.0938448 -0.929639
RightToes  -1.74624e-010 0 -3.6325e-017
Spine  3.31712 0.0234992 1.88085
Spine1  0.760816 0.293896 -1.36376
HEad  -3.37493 4.64419 -0.704472
LeftShoulder1  1.56125 -2.4089 -19.7909
LeftArm  -21.5378 10.0813 -0.352871
LeftForeArm  16.6585 -13.6364 -1.92757
LeftHand  -0.244104 0.0205437 5.32207
RightShoulder  1.28087 2.55342 14.261
RightArm  -19.4974 0.694606 3.1445
RightForeArm  -6.32052 9.52599 5.16112
RightHand  -1.9618 5.82555 -20.4055
LeftUpLeg  1.00111 6.28322 5.81699
LeftLeg  0.928022 9.69545 -3.74393
LeftFoot  -2.06263 0.213026 -2.47264
LeftToes  -6.82154e-011 1.37952e-011 -1.79748e-011
18
root  83.0409 40.436 -0.433432 171.846 -87.2551 -171.169
RightUpLeg  -0.528634 -7.94569 -5.27737
RightLeg  1.43243 -5.36918 3.86643
RightFoot  0.301039 0.0909581 -0.884784
RightToes  -1.74624e-010 0 -3.6325e-017
Spine  3.2035 0.226901 2.25751
Spine1  1.11847 0.532049 -1.50639
HEad  -2.89007 4.37219 -1.04208
LeftShoulder1  2.00586 -3.31019 -23.0541
LeftArm  -23.764 11.278 -1.26997
LeftForeArm  19.5667 -17.1636 -2.25807
LeftHand  -0.244104 0.0205437 5.32207
RightShoulder  1.70226 3.65279 17.1662
RightArm  -17.5079 -1.3256 4.50973
RightForeArm  -5.37911 13.2805 5.39716
RightHand  -1.8692 5.88088 -19.3749
LeftUpLeg  1.12468 6.43504 5.9325
LeftLeg  0.985193 9.91952 -3.8306
LeftFoot  -2.21487 0.211631 -2.47073
LeftToes  -6.82154e-011 1.37952e-011 -1.79748e-011
19
root  83.0431 40.4273 -0.404985 171.901 -86.9175 -171.299
RightUpLeg  -0.587118 -7.98521 -5.30452
RightLeg  1.64195 -4.95784 3.88621
RightFoot  0.183723 0.0878999 -0.862367
RightToes  -1.74624e-010 0 -3.6325e-017
Spine  3.07665 0.405868 2.85643
Spine1  1.57634 0.789185 -1.84612
HEad  -2.46314 4.15225 -1.49129
LeftShoulder1  2.54387 -4.21834 -26.7274
LeftArm  -25.1943 11.995 -2.79266
LeftForeArm  21.5265 -19.75 -2.85261
LeftHand  -0.244104 0.0205437 5.32207
RightShoulder  2.17415 4.61105 20.417
RightArm  -14.7759 -3.26725 6.26499
RightForeArm  -4.28003 16.6522 5.2638
RightHand  -1.6237 5.2268 -17.9051
LeftUpLeg  1.23295 6.6151 6.04995
LeftLeg  1.08899 10.0275 -3.97108
LeftFoot  -2.42586 0.219026 -2.61298
LeftToes  -6.82154e-011 1.37952e-011 -1.79748e-011
20
root  83.0398 40.4103 -0.387507 171.924 -86.8025 -171.485
RightUpLeg  -0.598646 -8.0712 -5.3864
RightLeg  2.08042 -4.73358 3.89296
RightFoot  -0.242209 0.0721739 -0.758781
RightToes  -1.74624e-010 0 -3.6325e-017
Spine  2.93081 0.544915 3.5328
Spine1  2.19571 1.03402 -2.29703
HEad  -2.18709 4.05192 -1.77918
LeftShoulder1  3.28902 -5.4206 -30.7268
LeftArm  -25.4537 12.3106 -4.52047
LeftForeArm  20.9127 -21.3505 -3.37382
LeftHand  -0.244104 0.0205437 5.32207
RightShoulder  2.70185 5.41444 24.1318
RightArm  -11.974 -5.11532 8.02396
RightForeArm  -3.58198 19.213 5.09165
RightHand  -1.3251 4.02862 -16.4963
LeftUpLeg  1.34731 6.79955 6.17274
LeftLeg  1.34523 9.93065 -4.09945
LeftFoot  -2.67488 0.23084 -2.83406
LeftToes  -6.82154e-011 1.37952e-011 -1.79748e-011
21
root  83.0294 40.385 -0.398739 171.758 -86.8708 -171.549
RightUpLeg  -0.647353 -8.02053 -5.38479
RightLeg  2.81655 -4.85345 3.73055
RightFoot  -0.986133 0.0368572 -0.478984
RightToes  -1.74624e-010 0 -3.6325e-017
Spine  2.68979 0.690002 4.0925
Spine1  3.08806 1.26178 -2.61954
HEad  -2.15955 3.89954 -1.92975
LeftShoulder1  4.37949 -7.0861 -35.2147
LeftArm  -25.0372 12.3603 -5.90473
LeftForeArm  20.764 -21.8524 -3.53032
LeftHand  -0.244104 0.0205437 5.32207
RightShoulder  3.33901 6.2401 28.2538
RightArm  -9.33116 -6.92858 9.5052
RightForeArm  -3.04847 20.7399 5.01906
RightHand  -1.05105 2.80502 -15.0403
LeftUpLeg  1.38411 6.94588 6.29673
LeftLeg  1.89318 9.65393 -4.10243
LeftFoot  -3.01625 0.236746 -3.00399
LeftToes  -6.82154e-011 1.37952e-011 -1.79748e-011
22
root  83.013 40.353 -0.44129 172.12 -87.0375 -172.135
RightUpLeg  -0.865711 -7.85611 -5.29653
RightLeg  3.91408 -5.22323 3.3832
RightFoot  -1.95171 -0.00266939 -0.128696
RightToes  -1.74624e-010 0 -3.6325e-017
Spine  2.23028 0.782041 4.45986
Spine1  4.4941 1.38622 -2.70599
HEad  -2.53217 3.67275 -2.183
LeftShoulder1  5.71914 -8.88337 -39.9151
LeftArm  -23.4249 11.9711 -7.35078
LeftForeArm  20.6339 -21.0297 -3.36495
LeftHand  -0.244104 0.0205437 5.32207
RightShoulder  4.06986 7.14459 32.283
RightArm  -7.09411 -8.46559 11.2166
RightForeArm  -1.92011 21.0605 4.98465
RightHand  -0.810841 1.79347 -13.241
LeftUpLeg  1.28827 7.01515 6.37374
LeftLeg  2.6843 9.23976 -3.97409
LeftFoot  -3.46715 0.242425 -3.22083
LeftToes  -6.82154e-011 1.37952e-011 -1.79748e-011
23
root  82.9922 40.315 -0.512612 174.137 -87.3637 -174.457
RightUpLeg  -1.10047 -7.93468 -5.28137
RightLeg  5.31324 -5.52415 2.98574
RightFoot  -3.08012 -0.0270005 0.0823295
RightToes  -1.74624e-010 0 -3.6325e-017
Spine  1.74788 0.658813 4.62596
Spine1  6.36132 1.26321 -2.63219
HEad  -3.34831 3.75125 -2.59971
LeftShoulder1  6.99622 -10.309 -44.079
LeftArm  -20.5456 10.8809 -9.55082
LeftForeArm  19.2757 -18.7272 -3.14669
LeftHand  -0.244104 0.0205437 5.32207
RightShoulder  4.77619 7.9888 35.5845
RightArm  -5.50169 -9.53486 13.9854
RightForeArm  0.371659 20.1779 4.96699
RightHand  -0.610673 0.988594 -11.2264
LeftUpLeg  1.24339 7.00227 6.36223
LeftLeg  3.48206 8.73692 -3.80318
LeftFoot  -3.90347 0.254854 -3.56001
LeftToes  -6.82154e-011 1.37952e-011 -1.79748e-011
24
root  82.9611 40.2709 -0.623528 179.313 -87.9057 179.824
RightUpLeg  -1.05138 -8.52566 -5.38845
RightLeg  6.81755 -5.50118 2.57779
RightFoot  -4.34947 -0.0349825 0.0867828
RightToes  -1.74624e-010 0 -3.6325e-017
Spine  2.14378 0.464601 4.63696
Spine1  7.24286 1.12047 -2.72904
HEad  -4.025 3.96839 -2.79795
LeftShoulder1  8.23547 -11.641 -47.4625
LeftArm  -16.837 9.39327 -11.8989
LeftForeArm  17.6558 -15.0079 -3.41808
LeftHand  -0.244104 0.0205437 5.32207
RightShoulder  5.45812 8.6179 38.9476
RightArm  -4.30188 -10.9553 16.8288
RightForeArm  3.51371 18.7048 5.06844
RightHand  -0.446081 0.275948 -9.20364
LeftUpLeg  1.48887 6.93163 6.29223
LeftLeg  4.14835 8.19344 -3.62595
LeftFoot  -4.25238 0.260783 -3.79638
LeftToes  -6.82154e-011 1.37952e-011 -1.79748e-011
